<svg width="280" height="72" viewBox="0 0 280 72" fill="none" xmlns="http://www.w3.org/2000/svg">
<path d="M279.142 23.44C279.142 26.8 278.332 29.95 276.712 32.89C275.152 35.83 272.662 38.2 269.242 40C265.882 41.8 261.622 42.7 256.462 42.7H245.932V70.82H233.332V4H256.462C261.322 4 265.462 4.84 268.882 6.52C272.302 8.2 274.852 10.51 276.532 13.45C278.272 16.39 279.142 19.72 279.142 23.44ZM255.922 32.53C259.402 32.53 261.982 31.75 263.662 30.19C265.342 28.57 266.182 26.32 266.182 23.44C266.182 17.32 262.762 14.26 255.922 14.26H245.932V32.53H255.922Z" fill="#F0F3F5"/>
<path d="M69.518 27.18C69.518 30.54 68.708 33.69 67.088 36.63C65.528 39.57 63.038 41.94 59.618 43.74C56.258 45.54 51.998 46.44 46.838 46.44H36.308V70.56H23.708V7.74001H46.838C51.698 7.74001 55.838 8.58 59.258 10.26C62.678 11.94 65.228 14.25 66.908 17.19C68.648 20.13 69.518 23.46 69.518 27.18ZM46.298 36.27C49.778 36.27 52.358 35.49 54.038 33.93C55.718 32.31 56.558 30.06 56.558 27.18C56.558 21.06 53.138 18 46.298 18H36.308V36.27H46.298Z" fill="#F0F3F5"/>
<path d="M84.8539 14.76C82.6339 14.76 80.7739 14.07 79.2739 12.69C77.8339 11.25 77.1139 9.48 77.1139 7.38C77.1139 5.28 77.8339 3.54 79.2739 2.16C80.7739 0.720001 82.6339 0 84.8539 0C87.0739 0 88.9039 0.720001 90.3439 2.16C91.8439 3.54 92.5939 5.28 92.5939 7.38C92.5939 9.48 91.8439 11.25 90.3439 12.69C88.9039 14.07 87.0739 14.76 84.8539 14.76ZM91.0639 20.7V70.56H78.4639V20.7H91.0639Z" fill="#F0F3F5"/>
<path d="M131.053 70.56L120.793 55.08L111.703 70.56H98.2027L114.493 45.54L98.0227 20.7H112.243L122.413 36.09L131.593 20.7H145.093L128.713 45.54L145.273 70.56H131.053Z" fill="#F0F3F5"/>
<path d="M198.466 44.55C198.466 46.35 198.346 47.97 198.106 49.41H161.656C161.956 53.01 163.216 55.83 165.436 57.87C167.656 59.91 170.386 60.93 173.626 60.93C178.306 60.93 181.636 58.92 183.616 54.9H197.206C195.766 59.7 193.006 63.66 188.926 66.78C184.846 69.84 179.836 71.37 173.896 71.37C169.096 71.37 164.776 70.32 160.936 68.22C157.156 66.06 154.186 63.03 152.026 59.13C149.926 55.23 148.876 50.73 148.876 45.63C148.876 40.47 149.926 35.94 152.026 32.04C154.126 28.14 157.066 25.14 160.846 23.04C164.626 20.94 168.976 19.89 173.896 19.89C178.636 19.89 182.866 20.91 186.586 22.95C190.366 24.99 193.276 27.9 195.316 31.68C197.416 35.4 198.466 39.69 198.466 44.55ZM185.416 40.95C185.356 37.71 184.186 35.13 181.906 33.21C179.626 31.23 176.836 30.24 173.536 30.24C170.416 30.24 167.776 31.2 165.616 33.12C163.516 34.98 162.226 37.59 161.746 40.95H185.416Z" fill="#F0F3F5"/>
<path d="M220.263 3.96V70.56H207.663V3.96H220.263Z" fill="#F0F3F5"/>
<path d="M0 20H12V32H0V20Z" fill="#E77728"/>
<path d="M0 44H12V56H0V44Z" fill="#D72638"/>
</svg>
