<svg width="329" height="84" viewBox="0 0 329 84" fill="none" xmlns="http://www.w3.org/2000/svg">
<path d="M328.54 27.5881C328.54 31.5427 327.587 35.2501 325.68 38.7104C323.844 42.1707 320.914 44.9601 316.889 47.0786C312.934 49.1971 307.92 50.2564 301.847 50.2564H289.453V83.3527H274.624V4.70786H301.847C307.567 4.70786 312.44 5.6965 316.465 7.6738C320.49 9.6511 323.491 12.3699 325.469 15.8302C327.517 19.2904 328.54 23.2097 328.54 27.5881ZM301.211 38.2867C305.307 38.2867 308.344 37.3686 310.321 35.5326C312.298 33.6259 313.287 30.9777 313.287 27.5881C313.287 20.385 309.262 16.7835 301.211 16.7835H289.453V38.2867H301.211Z" fill="#0B0D19"/>
<path d="M81.8202 31.9899C81.8202 35.9445 80.8669 39.652 78.9602 43.1122C77.1241 46.5725 74.1935 49.3619 70.1683 51.4805C66.2137 53.599 61.1998 54.6583 55.1266 54.6583H42.7332V83.0467H27.9034V9.10972H55.1266C60.8467 9.10972 65.7193 10.0984 69.7446 12.0757C73.7698 14.053 76.771 16.7718 78.7483 20.232C80.7963 23.6923 81.8202 27.6116 81.8202 31.9899ZM54.4911 42.6885C58.5869 42.6885 61.6235 41.7705 63.6008 39.9344C65.5781 38.0278 66.5667 35.3796 66.5667 31.9899C66.5667 24.7869 62.5415 21.1854 54.4911 21.1854H42.7332V42.6885H54.4911Z" fill="#0B0D19"/>
<path d="M99.87 17.372C97.2571 17.372 95.068 16.5599 93.3025 14.9357C91.6077 13.2409 90.7603 11.1576 90.7603 8.68601C90.7603 6.21438 91.6077 4.16646 93.3025 2.54224C95.068 0.847415 97.2571 0 99.87 0C102.483 0 104.637 0.847415 106.332 2.54224C108.097 4.16646 108.98 6.21438 108.98 8.68601C108.98 11.1576 108.097 13.2409 106.332 14.9357C104.637 16.5599 102.483 17.372 99.87 17.372ZM107.179 24.3632V83.0467H92.3492V24.3632H107.179Z" fill="#0B0D19"/>
<path d="M154.244 83.0467L142.169 64.8272L131.47 83.0467H115.581L134.754 53.599L115.369 24.3632H132.106L144.075 42.4767L154.88 24.3632H170.769L151.49 53.599L170.981 83.0467H154.244Z" fill="#0B0D19"/>
<path d="M233.588 52.4338C233.588 54.5523 233.447 56.459 233.164 58.1539H190.264C190.617 62.3909 192.1 65.71 194.713 68.111C197.325 70.512 200.539 71.7125 204.352 71.7125C209.86 71.7125 213.779 69.3468 216.11 64.6154H232.105C230.41 70.2648 227.162 74.9256 222.36 78.5977C217.557 82.1993 211.661 84 204.67 84C199.02 84 193.936 82.7642 189.416 80.2926C184.967 77.7503 181.472 74.1841 178.929 69.594C176.458 65.0038 175.222 59.7074 175.222 53.7049C175.222 47.6318 176.458 42.3001 178.929 37.71C181.401 33.1198 184.861 29.5889 189.31 27.1173C193.759 24.6457 198.879 23.4098 204.67 23.4098C210.249 23.4098 215.227 24.6103 219.605 27.0114C224.054 29.4124 227.479 32.8373 229.88 37.2863C232.352 41.6646 233.588 46.7137 233.588 52.4338ZM218.228 48.1967C218.158 44.3834 216.781 41.3468 214.097 39.087C211.414 36.7566 208.13 35.5914 204.246 35.5914C200.574 35.5914 197.467 36.7213 194.924 38.9811C192.453 41.1702 190.935 44.2421 190.37 48.1967H218.228Z" fill="#0B0D19"/>
<path d="M259.242 4.66079V83.0467H244.412V4.66079H259.242Z" fill="#0B0D19"/>
<path d="M0 23.5393H14.1236V37.6629H0V23.5393Z" fill="#E77728"/>
<path d="M0 51.7865H14.1236V65.91H0V51.7865Z" fill="#D72638"/>
</svg>
